<?xml version="1.0" encoding="UTF-8" standalone="no"?>
<!-- Created with Inkscape (http://www.inkscape.org/) -->

<svg
   width="1216.2894"
   height="512"
   viewBox="0 0 1216.2894 512"
   version="1.1"
   id="svg5"
   xmlns="http://www.w3.org/2000/svg"
   xmlns:svg="http://www.w3.org/2000/svg">
  <defs
     id="defs2" />
  <g
     id="layer1"
     transform="translate(275.57059,-657.04614)">
    <g
       id="g1580"
       transform="matrix(1.6555567,0,0,1.6555567,398.188,73.117408)">
      <path
         id="path1530"
         style="font-weight:bold;font-size:74.6667px;font-family:'TT Firs Neue Trl';-inkscape-font-specification:'TT Firs Neue Trl Bold';text-align:center;text-anchor:middle;fill:#ffffff;stroke-width:11.7665;stroke-linecap:round;stroke-linejoin:round"
         d="m -343.27487,352.7084 -63.69312,43.92903 v 85.66343 l 54.90271,-37.3449 V 660.2119 h 83.46868 V 352.7084 Z m 272.353348,2.19469 c -27.821266,0 -53.588398,6.8847 -77.309678,20.64887 -23.42842,13.76417 -42.02327,32.5144 -55.7875,56.23562 -13.76416,23.42842 -20.64881,49.05176 -20.64881,76.87303 0,27.82126 6.88465,53.58839 20.64881,77.30962 13.76423,23.42841 32.35908,42.02332 55.7875,55.78755 23.72128,13.4713 49.488412,20.21216 77.309678,20.21216 h 66.7726505 c 27.8212665,0 53.4445485,-6.74086 76.8730225,-20.21216 6.556712,-3.80458 12.692535,-8.01646 18.488541,-12.5594 L 44.37651,565.18351 c -0.807535,0.92249 -1.547001,1.87782 -2.401603,2.78078 -15.228453,16.107 -33.8233629,24.15353 -55.787496,24.15353 H -56.42024 c -21.964132,0 -40.714301,-8.04653 -56.23562,-24.15353 -15.22846,-16.39993 -22.84356,-36.02435 -22.84356,-58.86703 0,-23.13554 7.6151,-42.75997 22.84356,-58.86702 15.521319,-16.10706 34.271488,-24.15353 56.23562,-24.15353 h 42.607651 c 21.9641331,0 40.559043,8.04647 55.787496,24.15353 0.359467,0.37299 0.66016,0.77235 1.011214,1.14905 L 93.983352,391.93247 C 88.551284,387.74418 78.812026,379.08444 72.724151,375.55196 49.295677,361.78779 23.672395,354.90309 -4.1488715,354.90309 Z" />
      <text
         xml:space="preserve"
         style="font-style:normal;font-variant:normal;font-weight:bold;font-stretch:normal;font-size:126.833px;font-family:Sterion;-inkscape-font-specification:'Sterion Bold';text-align:center;text-anchor:middle;fill:#ffffff;stroke:#000000;stroke-width:1.69865;stroke-linecap:round;stroke-linejoin:round;stroke-dasharray:none"
         x="117.60407"
         y="551.66742"
         id="text1534"><tspan
           id="tspan1532"
           x="117.60408"
           y="551.66742"
           style="fill:#ffffff;stroke:none;stroke-width:1.69865">ARDS</tspan></text>
      <path
         id="text1528"
         style="font-weight:bold;font-size:74.6667px;font-family:'TT Firs Neue Trl';-inkscape-font-specification:'TT Firs Neue Trl Bold';text-align:center;text-anchor:middle;fill:#ffffff;stroke-width:11.7665;stroke-linecap:round;stroke-linejoin:round"
         d="m -343.27411,352.71181 -63.69318,43.92909 v 85.65196 l 54.91425,-37.33343 v 215.24441 h 83.45721 V 352.71181 Z m 272.353353,2.19475 c -27.821266,0 -53.588393,6.88464 -77.309683,20.64887 -23.42841,13.76411 -42.02332,32.50287 -55.78749,56.22415 -13.76423,23.42836 -20.64887,49.05182 -20.64887,76.87297 0,27.82126 6.88464,53.58839 20.64887,77.30968 13.76417,23.42835 32.35908,42.03485 55.78749,55.79896 23.72129,13.47136 49.488417,20.20075 77.309683,20.20075 h 66.7726504 c 2.6962369,0 5.3540562,-0.1149 8.0089927,-0.24133 L -15.70782,592.12123 h -40.711655 c -21.964132,0 -40.702829,-8.05794 -56.224155,-24.165 -15.22845,-16.39987 -22.84356,-36.02429 -22.84356,-58.86703 0,-23.13549 7.61511,-42.74855 22.84356,-58.85549 15.521326,-16.10706 34.260023,-24.16506 56.224155,-24.16506 h 36.437117 L 0,355.03299 c -1.3853301,-0.0347 -2.7517161,-0.12643 -4.1481066,-0.12643 z" />
      <path
         id="path1548"
         style="font-weight:bold;font-size:74.6667px;font-family:'TT Firs Neue Trl';-inkscape-font-specification:'TT Firs Neue Trl Bold';text-align:center;text-anchor:middle;fill:#ffffff;fill-opacity:0.5;stroke-width:11.7665;stroke-linecap:round;stroke-linejoin:round"
         d="m 0,355.03299 -19.982358,71.03566 h 6.170534 c 21.964074,0 40.559043,8.058 55.787496,24.16506 0.277101,0.28757 0.509195,0.59491 0.781355,0.88478 h 31.289268 c 11.695911,-0.60556 24.19924,0.7144 33.748295,8.1469 3.46959,4.52587 4.40114,0.80683 5.53849,-3.01058 1.82034,-2.90192 6.37698,-3.24997 9.28455,-5.13632 h 15.89167 c -2.70165,-6.60025 -5.8569,-13.05477 -9.54876,-19.33891 C 115.19631,408.0583 96.446142,389.31954 72.724857,375.55543 50.472445,362.48208 26.215196,355.68939 0,355.03299 Z m 64.313626,141.17512 c 0.0021,0.0155 0.0094,0.0304 0.01153,0.046 1.236248,-0.004 2.468731,7.6e-4 3.699979,0.0115 2.792663,-0.0471 7.522388,0.0831 9.250065,-0.0575 z m -7.468968,50.43285 c -3.728396,7.61393 -8.643796,14.73767 -14.868986,21.31527 -15.228453,16.10706 -33.823422,24.165 -55.787496,24.165 H -15.70782 L 3.8608861,661.72061 C 28.60115,660.5426 51.567025,653.927 72.724857,641.76119 c 23.721285,-13.76411 42.471453,-32.37061 56.235683,-55.79896 4.23165,-7.29301 7.73266,-14.79545 10.6634,-22.47586 -0.41318,-0.009 -0.82983,-0.0234 -1.24101,-0.023 -6.53242,-0.60903 -13.51208,1.16348 -19.63766,-1.59718 -3.32051,-2.56375 -6.48588,-0.33341 -9.67519,1.195 -8.70522,0.57598 -17.646414,0.0737 -26.440174,0.24134 -4.916519,0.91308 -9.092336,-1.69391 -13.421235,-3.57367 -4.28801,-4.12634 -8.326394,-8.61185 -12.364013,-13.08789 z" />
    </g>
  </g>
</svg>
