<?xml version="1.0" encoding="UTF-8" standalone="no"?>
<!-- Created with Inkscape (http://www.inkscape.org/) -->

<svg
   width="512"
   height="512"
   viewBox="0 0 512 512"
   version="1.1"
   id="svg5"
   xml:space="preserve"
   xmlns:inkscape="http://www.inkscape.org/namespaces/inkscape"
   xmlns:sodipodi="http://sodipodi.sourceforge.net/DTD/sodipodi-0.dtd"
   xmlns="http://www.w3.org/2000/svg"
   xmlns:svg="http://www.w3.org/2000/svg"><sodipodi:namedview
     id="namedview7"
     pagecolor="#505050"
     bordercolor="#eeeeee"
     borderopacity="1"
     inkscape:showpageshadow="0"
     inkscape:pageopacity="0"
     inkscape:pagecheckerboard="0"
     inkscape:deskcolor="#505050"
     inkscape:document-units="px"
     showgrid="false" /><defs
     id="defs2" /><g
     inkscape:label="Layer 1"
     inkscape:groupmode="layer"
     id="layer1"><path
       style="fill:#010101;stroke-width:0.940359"
       d="m 202.82009,371.18324 c -4.47548,-2.20875 -92.88234,-91.41335 -95.01011,-95.86744 -2.39577,-5.01508 -2.41719,-15.64049 -0.0405,-20.08499 0.92896,-1.73717 5.09242,-6.70357 9.25214,-11.03644 8.9317,-9.30346 14.86836,-12.61642 22.5511,-12.58466 9.19325,0.038 11.16543,1.55433 41.91054,32.22271 l 28.45217,28.38118 74.51723,-74.46693 c 57.55669,-57.51782 75.48039,-74.8999 78.74887,-76.36924 6.07378,-2.73046 13.43494,-2.56231 19.46927,0.44472 5.20648,2.5945 18.69086,15.88669 21.56071,21.2534 2.37208,4.43588 2.35472,15.06567 -0.0328,20.08499 -2.25842,4.74791 -181.82239,185.00096 -186.95058,187.66801 -4.15599,2.16142 -10.45343,2.31623 -14.42801,0.35469 z"
       id="path316"
       inkscape:export-filename="check.svg"
       inkscape:export-xdpi="96"
       inkscape:export-ydpi="96" /></g></svg>
