<?xml version="1.0" encoding="UTF-8" standalone="no"?>
<!-- Created with Inkscape (http://www.inkscape.org/) -->

<svg
   width="512"
   height="512"
   viewBox="0 0 512 512"
   version="1.1"
   id="svg5"
   xml:space="preserve"
   inkscape:export-filename="cross.svg"
   inkscape:export-xdpi="96"
   inkscape:export-ydpi="96"
   xmlns:inkscape="http://www.inkscape.org/namespaces/inkscape"
   xmlns:sodipodi="http://sodipodi.sourceforge.net/DTD/sodipodi-0.dtd"
   xmlns="http://www.w3.org/2000/svg"
   xmlns:svg="http://www.w3.org/2000/svg"><sodipodi:namedview
     id="namedview7"
     pagecolor="#505050"
     bordercolor="#eeeeee"
     borderopacity="1"
     inkscape:showpageshadow="0"
     inkscape:pageopacity="0"
     inkscape:pagecheckerboard="0"
     inkscape:deskcolor="#505050"
     inkscape:document-units="px"
     showgrid="false" /><defs
     id="defs2" /><g
     inkscape:label="Layer 1"
     inkscape:groupmode="layer"
     id="layer1"><path
       style="fill:#000000;stroke-width:0.938633"
       d="m 136.65944,404.80861 c -1.86796,-0.66728 -4.82517,-2.09643 -6.57157,-3.17589 -4.88235,-3.01778 -19.09557,-18.02356 -21.43393,-22.62909 -2.91953,-5.75023 -3.4489,-12.6244 -1.49579,-19.42376 1.58764,-5.52703 1.89118,-5.85484 50.55409,-54.59519 l 48.95685,-49.03477 -48.95685,-49.03477 c -48.66291,-48.74034 -48.96645,-49.06815 -50.55409,-54.59518 -1.9526,-6.79757 -1.42397,-13.6715 1.49376,-19.42375 2.80984,-5.53955 17.72781,-20.62622 23.50212,-23.76788 6.15499,-3.34877 13.02444,-4.01771 20.17645,-1.96475 5.52899,1.58708 5.85692,1.89052 54.61449,50.53623 l 49.0521,48.93956 49.0521,-48.93956 c 48.75757,-48.64571 49.0855,-48.94915 54.61449,-50.53623 7.15202,-2.05296 14.02147,-1.38402 20.17645,1.96475 5.77431,3.14166 20.69229,18.22833 23.50212,23.76788 2.91773,5.75225 3.44636,12.62618 1.49377,19.42375 -1.58764,5.52703 -1.89119,5.85484 -50.55409,54.59518 l -48.95686,49.03477 48.95686,49.03477 c 48.6629,48.74035 48.96645,49.06816 50.55409,54.59519 2.05369,7.14949 1.38452,14.01651 -1.96545,20.16933 -3.14277,5.77226 -18.23477,20.68497 -23.77627,23.49381 -5.7543,2.91669 -12.63065,3.44513 -19.43062,1.49324 -5.52899,-1.58708 -5.85692,-1.89051 -54.61449,-50.53622 l -49.0521,-48.93957 -49.0521,48.93209 c -47.20982,47.09432 -49.2436,48.98804 -54.15117,50.42188 -6.09231,1.78 -11.51247,1.84523 -16.13436,0.19418 z"
       id="path419" /></g></svg>
